<?xml version="1.0" encoding="iso-8859-1"?>
<!-- Generator: Adobe Illustrator 19.0.0, SVG Export Plug-In . SVG Version: 6.00 Build 0)  -->
<svg version="1.1" id="Capa_1" xmlns="http://www.w3.org/2000/svg" xmlns:xlink="http://www.w3.org/1999/xlink" x="0px" y="0px"
	 viewBox="0 0 469.336 469.336" style="enable-background:new 0 0 469.336 469.336;" xml:space="preserve">
<g>
	<path style="fill:#303C42;" d="M192,192.001c23.521,0,42.667-19.135,42.667-42.667v-21.333c0-5.896-4.771-10.667-10.667-10.667
		h-21.333c-5.896,0-10.667,4.771-10.667,10.667c0,5.896,4.771,10.667,10.667,10.667h10.667v10.667
		c0,11.76-9.563,21.333-21.333,21.333c-11.771,0-21.333-9.573-21.333-21.333v-64c0-11.76,9.563-21.333,21.333-21.333
		c11.771,0,21.333,9.573,21.333,21.333c0,5.896,4.771,10.667,10.667,10.667c5.896,0,10.667-4.771,10.667-10.667
		c0-23.531-19.146-42.667-42.667-42.667s-42.667,19.135-42.667,42.667v64C149.333,172.866,168.479,192.001,192,192.001z"/>
	<path style="fill:#303C42;" d="M53.333,149.335h53.323l0.01,32c0,5.896,4.771,10.667,10.667,10.667
		c5.896,0,10.667-4.781,10.667-10.667l-0.021-64.031c0-5.896-4.771-10.667-10.667-10.667s-10.667,4.781-10.667,10.667l0.004,10.698
		H70.583l34.958-69.896c2.625-5.271,0.5-11.677-4.771-14.313c-5.25-2.594-11.667-0.51-14.313,4.771l-42.667,85.333
		c-1.646,3.302-1.479,7.229,0.458,10.375C46.208,147.418,49.646,149.335,53.333,149.335z"/>
	<path style="fill:#303C42;" d="M462.752,0.825c-3.99-1.677-8.573-0.74-11.625,2.312l-448,447.989
		c-3.052,3.052-3.969,7.635-2.313,11.625c1.646,3.99,5.542,6.583,9.854,6.583h448c5.896,0,10.667-4.771,10.667-10.666V10.679
		C469.336,6.367,466.742,2.471,462.752,0.825z"/>
</g>
<polygon style="fill:#01579B;" points="128.002,448.001 36.419,448.001 128.002,356.418 "/>
<polygon style="fill:#0288D1;" points="234.669,448.001 149.336,448.001 149.336,335.085 234.669,249.751 "/>
<polygon style="fill:#80C3E8;" points="341.336,448.001 256.002,448.001 256.002,228.418 341.336,143.085 "/>
<polygon style="fill:#CCE7F6;" points="448.002,448.001 362.669,448.001 362.669,121.751 448.002,36.418 "/>
<linearGradient id="SVGID_1_" gradientUnits="userSpaceOnUse" x1="-65.1938" y1="617.4234" x2="-42.9356" y2="607.0428" gradientTransform="matrix(21.3333 0 0 -21.3333 1430.085 13315.252)">
	<stop  offset="0" style="stop-color:#FFFFFF;stop-opacity:0.2"/>
	<stop  offset="1" style="stop-color:#FFFFFF;stop-opacity:0"/>
</linearGradient>
<path style="fill:url(#SVGID_1_);" d="M192,192.001c23.521,0,42.667-19.135,42.667-42.667v-21.333
	c0-5.896-4.771-10.667-10.667-10.667h-21.333c-5.896,0-10.667,4.771-10.667,10.667c0,5.896,4.771,10.667,10.667,10.667h10.667
	v10.667c0,11.76-9.563,21.333-21.333,21.333c-11.771,0-21.333-9.573-21.333-21.333v-64c0-11.76,9.563-21.333,21.333-21.333
	c11.771,0,21.333,9.573,21.333,21.333c0,5.896,4.771,10.667,10.667,10.667c5.896,0,10.667-4.771,10.667-10.667
	c0-23.531-19.146-42.667-42.667-42.667s-42.667,19.135-42.667,42.667v64C149.333,172.866,168.479,192.001,192,192.001z
	 M53.333,149.335h53.323l0.01,32c0,5.896,4.771,10.667,10.667,10.667c5.896,0,10.667-4.781,10.667-10.667l-0.021-64.031
	c0-5.896-4.771-10.667-10.667-10.667s-10.667,4.781-10.667,10.667l0.004,10.698H70.583l34.958-69.896
	c2.625-5.271,0.5-11.677-4.771-14.313c-5.25-2.594-11.667-0.51-14.313,4.771l-42.667,85.333c-1.646,3.302-1.479,7.229,0.458,10.375
	C46.208,147.418,49.646,149.335,53.333,149.335z M462.753,0.826c-3.99-1.677-8.573-0.74-11.625,2.313l-448,447.988
	c-3.052,3.052-3.969,7.635-2.313,11.625c1.646,3.99,5.542,6.583,9.854,6.583h448c5.896,0,10.667-4.771,10.667-10.667V10.678
	C469.336,6.367,466.742,2.471,462.753,0.826z"/>
<g>
</g>
<g>
</g>
<g>
</g>
<g>
</g>
<g>
</g>
<g>
</g>
<g>
</g>
<g>
</g>
<g>
</g>
<g>
</g>
<g>
</g>
<g>
</g>
<g>
</g>
<g>
</g>
<g>
</g>
</svg>
