<svg id="bold" enable-background="new 0 0 32 32" height="512" viewBox="0 0 32 32" width="512" xmlns="http://www.w3.org/2000/svg"><path d="m26 32h-20c-3.314 0-6-2.686-6-6v-20c0-3.314 2.686-6 6-6h20c3.314 0 6 2.686 6 6v20c0 3.314-2.686 6-6 6z" fill="#f5e6fe"/><path d="m22.826 12.5h-.161v-.167c0-1.011-.823-1.833-1.833-1.833h-11c-1.011 0-1.833.822-1.833 1.833v6.333c0 1.011.823 1.833 1.833 1.833h11c1.011 0 1.833-.822 1.833-1.833v-.166h.161c.643 0 1.167-.523 1.167-1.167v-3.667c0-.643-.524-1.166-1.167-1.166zm-5.549 2.513-2.33 3.666c-.063.099-.17.155-.281.155-.038 0-.076-.007-.113-.02-.146-.053-.237-.201-.218-.355l.286-2.292-.959-.001c-.125 0-.239-.07-.296-.181s-.047-.245.025-.346l2.384-3.332c.09-.126.256-.172.398-.114.143.059.227.209.202.362l-.318 1.945.938.001c.122 0 .233.066.292.173s.055.236-.01.339z" fill="#be63f9"/></svg>