<svg id="Layer_1" enable-background="new 0 0 512 512"  viewBox="0 0 512 512" xmlns="http://www.w3.org/2000/svg"><g><path d="m72 0c-39.701 0-72 32.299-72 72s32.299 72 72 72 72-32.299 72-72-32.299-72-72-72zm0 112c-22.056 0-40-17.944-40-40s17.944-40 40-40 40 17.944 40 40-17.944 40-40 40z"/><path d="m72 184c-39.701 0-72 32.299-72 72s32.299 72 72 72 72-32.299 72-72-32.299-72-72-72zm0 112c-22.056 0-40-17.944-40-40s17.944-40 40-40 40 17.944 40 40-17.944 40-40 40z"/><path d="m72 368c-39.701 0-72 32.299-72 72s32.299 72 72 72 72-32.299 72-72-32.299-72-72-72zm0 112c-22.056 0-40-17.944-40-40s17.944-40 40-40 40 17.944 40 40-17.944 40-40 40z"/><path d="m248 144h192c39.701 0 72-32.299 72-72s-32.299-72-72-72h-192c-39.701 0-72 32.299-72 72s32.299 72 72 72zm0-112h192c22.056 0 40 17.944 40 40s-17.944 40-40 40h-192c-22.056 0-40-17.944-40-40s17.944-40 40-40z"/><path d="m440 184h-192c-39.701 0-72 32.299-72 72s32.299 72 72 72h192c39.701 0 72-32.299 72-72s-32.299-72-72-72zm0 112h-192c-22.056 0-40-17.944-40-40s17.944-40 40-40h192c22.056 0 40 17.944 40 40s-17.944 40-40 40z"/><path d="m440 368h-192c-39.701 0-72 32.299-72 72s32.299 72 72 72h192c39.701 0 72-32.299 72-72s-32.299-72-72-72zm0 112h-192c-22.056 0-40-17.944-40-40s17.944-40 40-40h192c22.056 0 40 17.944 40 40s-17.944 40-40 40z"/></g></svg>